<svg width="998" height="561" viewBox="0 0 998 561" fill="none" xmlns="http://www.w3.org/2000/svg">
<path d="M938.846 5.41716C964.151 -9.66682 996.253 8.53387 996.303 37.9933L997.121 519.18C997.171 548.639 965.131 566.949 939.775 551.951L534.183 312.047C527.522 308.108 522.645 302.64 519.552 296.464C516.285 303.126 510.96 308.977 503.571 312.988L56.9532 555.477C31.6579 569.211 0.870379 550.93 0.82135 522.147L6.10352e-05 38.6886C-0.0488707 9.90544 30.6758 -8.48062 56.0176 5.16716L503.458 246.136C510.809 250.095 516.132 255.874 519.427 262.467C522.496 256.225 527.376 250.69 534.071 246.699L938.846 5.41716Z" fill="#53211A"/>
</svg>
